<?xml version="1.0" encoding="UTF-8" standalone="no"?>
<!-- Created with Inkscape (http://www.inkscape.org/) -->

<svg
   xmlns:dc="http://purl.org/dc/elements/1.1/"
   xmlns:cc="http://creativecommons.org/ns#"
   xmlns:rdf="http://www.w3.org/1999/02/22-rdf-syntax-ns#"
   xmlns:svg="http://www.w3.org/2000/svg"
   xmlns="http://www.w3.org/2000/svg"
   xmlns:sodipodi="http://sodipodi.sourceforge.net/DTD/sodipodi-0.dtd"
   xmlns:inkscape="http://www.inkscape.org/namespaces/inkscape"
   width="512"
   height="512"
   viewBox="0 0 512.00001 512.00001"
   id="svg2"
   version="1.1"
   inkscape:version="0.91 r13725"
   sodipodi:docname="jswm-logo.svg"
   inkscape:export-filename="/home/thomas/Dropbox/Personal/Code/GitHub/jswm/favicon.png"
   inkscape:export-xdpi="90"
   inkscape:export-ydpi="90">
  <defs
     id="defs4" />
  <sodipodi:namedview
     id="base"
     pagecolor="#ffffff"
     bordercolor="#666666"
     borderopacity="1.0"
     inkscape:pageopacity="0.0"
     inkscape:pageshadow="2"
     inkscape:zoom="1"
     inkscape:cx="198.98292"
     inkscape:cy="333.79095"
     inkscape:document-units="px"
     inkscape:current-layer="g4345"
     showgrid="false"
     inkscape:window-width="1920"
     inkscape:window-height="1051"
     inkscape:window-x="0"
     inkscape:window-y="1"
     inkscape:window-maximized="1"
     units="px" />
  <metadata
     id="metadata7">
    <rdf:RDF>
      <cc:Work
         rdf:about="">
        <dc:format>image/svg+xml</dc:format>
        <dc:type
           rdf:resource="http://purl.org/dc/dcmitype/StillImage" />
        <dc:title></dc:title>
      </cc:Work>
    </rdf:RDF>
  </metadata>
  <g
     inkscape:label="Layer 1"
     inkscape:groupmode="layer"
     id="layer1"
     transform="translate(0,-540.36216)">
    <g
       id="g4345"
       transform="matrix(0.49562301,0.36893487,-0.49562301,0.36893487,242.44858,461.46415)">
      <rect
         y="269.94177"
         x="297.09753"
         height="515.1778"
         width="515.1778"
         id="rect3390-4-0"
         style="fill:#e6e6e6;fill-opacity:1" />
      <rect
         y="178.98941"
         x="204.92905"
         height="515.1778"
         width="515.1778"
         id="rect3390-4"
         style="fill:#cccccc;fill-opacity:1" />
      <rect
         y="94.737572"
         x="120.20815"
         height="515.1778"
         width="515.1778"
         id="rect3390"
         style="fill:#d4aa00;fill-opacity:1" />
      <g
         style="font-style:normal;font-weight:normal;font-size:40px;line-height:125%;font-family:Sans;letter-spacing:0px;word-spacing:0px;fill:#000000;fill-opacity:1;stroke:none;stroke-width:1px;stroke-linecap:butt;stroke-linejoin:miter;stroke-opacity:1"
         id="text3459">
        <path
           inkscape:connector-curvature="0"
           d="m 252.85492,378.36084 8.625,0 0,137.1375 q 0,14.0875 -4.3125,26.45 -4.025,12.075 -11.7875,21.275 -7.475,8.9125 -18.1125,14.0875 -10.6375,5.175 -23.2875,5.175 -12.9375,0 -23.575,-5.4625 -10.6375,-5.75 -18.975,-14.0875 l 6.0375,-6.6125 q 8.3375,7.7625 17.25,12.65 8.9125,4.8875 19.2625,4.8875 9.2,0 16.675,-3.1625 7.475,-3.1625 13.225,-8.3375 6.0375,-5.4625 10.0625,-12.3625 4.025,-6.9 6.0375,-14.6625 1.4375,-5.4625 2.0125,-11.7875 0.8625,-6.6125 0.8625,-10.6375 l 0,-134.55 z"
           style="font-style:normal;font-variant:normal;font-weight:300;font-stretch:normal;font-size:287.5px;font-family:Existence;-inkscape-font-specification:'Existence Light'"
           id="path4361" />
        <path
           inkscape:connector-curvature="0"
           d="m 305.46292,545.68584 q 6.6125,14.6625 19.2625,21.85 12.9375,6.9 28.4625,6.9 10.925,0 20.125,-3.45 9.4875,-3.45 16.3875,-9.4875 6.9,-6.325 10.6375,-14.6625 4.025,-8.625 4.025,-18.975 0,-8.9125 -4.8875,-15.8125 -4.6,-7.1875 -12.075,-12.65 -7.475,-5.4625 -16.675,-9.2 -8.9125,-4.025 -17.5375,-7.1875 -9.775,-3.45 -19.8375,-7.7625 -10.0625,-4.6 -18.4,-10.925 -8.05,-6.325 -13.5125,-14.6625 -5.175,-8.3375 -5.175,-19.55 0,-12.075 4.6,-22.1375 4.6,-10.35 12.65,-17.5375 8.05,-7.475 18.975,-11.5 10.925,-4.025 23.575,-4.025 18.1125,0 33.0625,8.3375 15.2375,8.3375 22.7125,25.5875 l -8.05,3.45 q -6.6125,-14.6625 -19.55,-21.5625 -12.65,-7.1875 -28.175,-7.1875 -10.925,0 -20.4125,3.45 -9.2,3.45 -16.1,9.775 -6.9,6.0375 -10.925,14.6625 -3.7375,8.3375 -3.7375,18.6875 0,9.2 4.6,16.1 4.8875,6.9 12.3625,12.3625 7.475,5.4625 16.3875,9.4875 9.2,4.025 17.825,6.9 9.775,3.45 19.8375,8.05 10.0625,4.3125 18.1125,10.6375 8.3375,6.325 13.5125,14.6625 5.4625,8.3375 5.4625,19.55 0,12.075 -4.6,22.425 -4.6,10.0625 -12.65,17.5375 -8.05,7.1875 -18.975,11.2125 -10.925,4.025 -23.575,4.025 -18.4,0 -33.35,-8.3375 -14.95,-8.3375 -22.425,-25.5875 l 8.05,-3.45 z"
           style="font-style:normal;font-variant:normal;font-weight:300;font-stretch:normal;font-size:287.5px;font-family:Existence;-inkscape-font-specification:'Existence Light'"
           id="path4363" />
      </g>
      <g
         style="font-style:normal;font-weight:normal;font-size:40px;line-height:125%;font-family:Sans;letter-spacing:0px;word-spacing:0px;fill:#000000;fill-opacity:1;stroke:none;stroke-width:1px;stroke-linecap:butt;stroke-linejoin:miter;stroke-opacity:1"
         id="text3463">
        <path
           inkscape:connector-curvature="0"
           d="m 493.35726,576.56019 12.42,-48.78 -12.6,0 -5.94,26.01 -5.76,-26.01 -11.97,0 -6.03,26.1 -5.67,-26.1 -12.69,0 12.51,48.78 11.7,0 6.12,-26.28 6.21,26.28 11.7,0 z"
           style="font-style:normal;font-variant:normal;font-weight:500;font-stretch:normal;font-size:90px;line-height:125%;font-family:OldSansBlack;-inkscape-font-specification:'OldSansBlack, Medium';text-align:start;writing-mode:lr-tb;text-anchor:start"
           id="path4356" />
        <path
           inkscape:connector-curvature="0"
           d="m 562.56445,576.56019 13.14,0 0,-35.1 q 0,-2.88 -0.81,-5.49 -0.72,-2.61 -2.34,-4.59 -1.53,-2.07 -3.87,-3.24 -2.34,-1.26 -5.49,-1.26 -4.86,0 -8.64,1.53 -3.78,1.44 -7.2,4.68 -1.98,-3.15 -5.13,-4.68 -3.15,-1.53 -6.84,-1.53 -3.87,0 -6.93,1.08 -2.97,1.08 -5.85,3.51 l 0,-3.69 -12.24,0 0,48.78 13.14,0 0,-34.2 q 0.63,-0.54 1.62,-1.35 0.99,-0.81 2.07,-1.44 1.17,-0.72 2.34,-1.17 1.17,-0.54 2.16,-0.54 2.52,0 3.6,1.35 1.17,1.35 1.17,3.78 l 0,33.57 13.14,0 0,-34.2 q 0.63,-0.54 1.62,-1.35 0.99,-0.81 2.16,-1.44 1.17,-0.72 2.25,-1.17 1.17,-0.54 2.07,-0.54 2.52,0 3.69,1.35 1.17,1.35 1.17,3.78 l 0,33.57 z"
           style="font-style:normal;font-variant:normal;font-weight:500;font-stretch:normal;font-size:90px;line-height:125%;font-family:OldSansBlack;-inkscape-font-specification:'OldSansBlack, Medium';text-align:start;writing-mode:lr-tb;text-anchor:start"
           id="path4358" />
      </g>
      <rect
         y="94.729774"
         x="120.20815"
         height="58.445824"
         width="515.13263"
         id="rect4319"
         style="fill:#4d4d4d;fill-opacity:1" />
      <rect
         y="94.729919"
         x="120.20815"
         height="58.446793"
         width="58.14138"
         id="rect4323"
         style="fill:#aa0000;fill-opacity:1" />
      <rect
         y="94.728096"
         x="178.34727"
         height="58.446793"
         width="58.14138"
         id="rect4323-3"
         style="fill:#1a1a1a;fill-opacity:1" />
    </g>
  </g>
</svg>
